# xmcd
#
# Track frame offsets:
#	150
#	23900
#	42075
#	60762
#	81750
#	96500
#	124462
#	152062
#	178825
#
# Disc length: 2682 seconds
#
# Revision: 0
# Processed by: cddbd v1.5.1PL2 Copyright (c) Steve Scherf et al.
# Submitted via: dBpowerAMP V4.0
#
DISCID=6f0a7809
DTITLE=Mick Jagger, Ron Wood, Charlie Watts, Gary Moore, Buddy Guy - A Celebration To The Blues
DYEAR=1992
DGENRE=Blues
TTITLE0=Sweet Home Chicago 
TTITLE1=Going Down
TTITLE2=Since My Baby Left This Town
TTITLE3=Everybody Knows About My Good Thing
TTITLE4=Who Do You Love
TTITLE5=I Just Want To Make Love To You
TTITLE6=The Blues Is Allright
TTITLE7=Bound For New York
TTITLE8=Bad Seeds - Rye Drinks
EXTD=
EXTT0=
EXTT1=
EXTT2=
EXTT3=
EXTT4=
EXTT5=
EXTT6=
EXTT7=
EXTT8=
PLAYORDER=
